<svg width="1358" height="431" viewBox="0 0 1358 431" fill="none" xmlns="http://www.w3.org/2000/svg">
<path d="M141.569 347.395H100V315.88H141.569C157.51 315.88 177.804 310.424 183.936 284.366C194.481 239.241 210.361 158.126 212.568 145.312C219.19 107.482 247.945 84 287.552 84H331.022V115.514H287.552C263.15 115.514 247.516 128.022 243.53 150.768C241.262 163.705 225.198 246.108 214.53 291.54C206.314 326.487 179.031 347.395 141.508 347.395H141.569Z" fill="white"/>
<path d="M282.358 167.857H208.949V198.376H282.358V167.857Z" fill="white"/>
<path d="M219.672 233.019H147.913V263.537H219.672V233.019Z" fill="white"/>
<ellipse cx="289.782" cy="310.965" rx="36.2919" ry="36.7043" fill="white"/>
<path d="M529.159 312V136.301H643.541V161.064H556.988V213.892H634.107V238.655H556.988V312H529.159ZM722.39 314.83C710.126 314.83 698.884 311.921 688.665 306.104C678.602 300.287 670.584 292.347 664.609 282.284C658.635 272.222 655.648 260.823 655.648 248.088C655.648 235.196 658.635 223.797 664.609 213.892C670.584 203.829 678.602 195.968 688.665 190.308C698.727 184.491 709.969 181.582 722.39 181.582C734.968 181.582 746.209 184.491 756.114 190.308C766.177 195.968 774.117 203.829 779.934 213.892C785.908 223.797 788.896 235.196 788.896 248.088C788.896 260.981 785.908 272.458 779.934 282.52C773.959 292.583 765.941 300.523 755.878 306.34C745.816 312 734.653 314.83 722.39 314.83ZM722.39 290.067C729.936 290.067 736.618 288.259 742.436 284.643C748.253 281.027 752.813 276.074 756.114 269.785C759.573 263.339 761.303 256.107 761.303 248.088C761.303 240.07 759.573 232.916 756.114 226.627C752.813 220.338 748.253 215.385 742.436 211.769C736.618 208.153 729.936 206.345 722.39 206.345C715 206.345 708.318 208.153 702.343 211.769C696.526 215.385 691.888 220.338 688.429 226.627C685.127 232.916 683.476 240.07 683.476 248.088C683.476 256.107 685.127 263.339 688.429 269.785C691.888 276.074 696.526 281.027 702.343 284.643C708.318 288.259 715 290.067 722.39 290.067ZM814.913 312V184.412H840.384V210.118L838.025 206.345C840.855 198.012 845.415 192.037 851.704 188.421C857.993 184.648 865.54 182.761 874.344 182.761H882.127V207.052H871.043C862.238 207.052 855.084 209.804 849.581 215.307C844.236 220.652 841.563 228.356 841.563 238.419V312H814.913ZM957.847 313.415C944.483 313.415 934.106 309.642 926.717 302.095C919.327 294.548 915.632 283.935 915.632 270.257V208.467H893.228V184.412H896.765C902.74 184.412 907.378 182.682 910.68 179.224C913.982 175.765 915.632 171.048 915.632 165.073V155.168H942.282V184.412H971.29V208.467H942.282V269.078C942.282 273.48 942.99 277.253 944.405 280.398C945.82 283.385 948.099 285.743 951.244 287.473C954.388 289.045 958.476 289.831 963.507 289.831C964.765 289.831 966.18 289.753 967.753 289.595C969.325 289.438 970.818 289.281 972.233 289.124V312C970.032 312.314 967.595 312.629 964.923 312.943C962.25 313.258 959.891 313.415 957.847 313.415ZM1055.84 314.83C1043.1 314.83 1031.78 311.921 1021.88 306.104C1012.13 300.13 1004.51 292.111 999.003 282.049C993.5 271.829 990.749 260.43 990.749 247.852C990.749 234.96 993.5 223.561 999.003 213.656C1004.66 203.751 1012.21 195.968 1021.64 190.308C1031.08 184.491 1041.77 181.582 1053.72 181.582C1063.31 181.582 1071.88 183.233 1079.42 186.535C1086.97 189.836 1093.34 194.396 1098.53 200.213C1103.71 205.873 1107.65 212.398 1110.32 219.788C1113.15 227.177 1114.56 235.038 1114.56 243.371C1114.56 245.415 1114.48 247.538 1114.33 249.739C1114.17 251.94 1113.86 253.984 1113.38 255.871H1011.74V234.645H1098.29L1085.56 244.315C1087.13 236.611 1086.58 229.771 1083.9 223.797C1081.39 217.665 1077.46 212.87 1072.11 209.411C1066.92 205.795 1060.79 203.986 1053.72 203.986C1046.64 203.986 1040.35 205.795 1034.85 209.411C1029.35 212.87 1025.1 217.901 1022.11 224.504C1019.13 230.951 1017.95 238.812 1018.58 248.088C1017.79 256.735 1018.97 264.282 1022.11 270.728C1025.42 277.175 1029.98 282.206 1035.79 285.822C1041.77 289.438 1048.53 291.246 1056.08 291.246C1063.78 291.246 1070.3 289.517 1075.65 286.058C1081.15 282.599 1085.48 278.118 1088.62 272.615L1110.32 283.228C1107.8 289.202 1103.87 294.627 1098.53 299.501C1093.34 304.217 1087.05 307.991 1079.66 310.821C1072.43 313.494 1064.49 314.83 1055.84 314.83ZM1208.96 314.83C1195.91 314.83 1184.28 312.079 1174.06 306.576C1164 301.073 1156.06 293.526 1150.24 283.935C1144.58 274.345 1141.75 263.417 1141.75 251.154V136.301H1169.58V249.975C1169.58 257.679 1171.23 264.518 1174.53 270.493C1177.99 276.467 1182.63 281.105 1188.45 284.407C1194.42 287.709 1201.26 289.36 1208.96 289.36C1216.83 289.36 1223.66 287.709 1229.48 284.407C1235.46 281.105 1240.1 276.467 1243.4 270.493C1246.86 264.518 1248.59 257.679 1248.59 249.975V136.301H1276.18V251.154C1276.18 263.417 1273.35 274.345 1267.69 283.935C1262.03 293.526 1254.09 301.073 1243.87 306.576C1233.81 312.079 1222.17 314.83 1208.96 314.83ZM1311.06 312V136.301H1338.89V312H1311.06Z" fill="white"/>
</svg>
